<svg xmlns="http://www.w3.org/2000/svg" xmlns:xlink="http://www.w3.org/1999/xlink" viewBox="0 0 640 426.77"><defs><style>.cls-1{isolation:isolate;}.cls-2{fill:#1a1a1a;}.cls-3{fill:#fbfadc;}.cls-4{fill:#0485a8;}.cls-23,.cls-24,.cls-38,.cls-43,.cls-48,.cls-5{mix-blend-mode:soft-light;}.cls-5{fill:url(#linear-gradient);}.cls-6{fill:#ffb850;}.cls-7{fill:#29c7cc;}.cls-8{fill:url(#linear-gradient-2);}.cls-9{fill:url(#linear-gradient-3);}.cls-10{fill:#ffaf99;}.cls-11{fill:#ea7d6a;}.cls-12{fill:#93372b;}.cls-13{fill:#c65347;}.cls-14{fill:url(#linear-gradient-4);}.cls-15{fill:#d600c9;}.cls-16{fill:url(#linear-gradient-5);}.cls-17{fill:#344fb5;}.cls-18{fill:#ff613f;}.cls-19{fill:#3656b3;}.cls-20{fill:#72ffea;}.cls-21{fill:#ff54ff;}.cls-22{fill:#d2d2d2;}.cls-23{fill:url(#linear-gradient-6);}.cls-24{fill:url(#linear-gradient-7);}.cls-25{fill:#50d3ea;}.cls-26{fill:#ef16ea;}.cls-27{fill:url(#linear-gradient-8);}.cls-28{fill:url(#linear-gradient-9);}.cls-29{fill:#04bbc1;}.cls-30{fill:#045ba8;}.Graphic-Style-5{fill:url(#linear-gradient-10);}.cls-31{fill:#ecff07;}.cls-32{fill:url(#linear-gradient-11);}.cls-33{fill:url(#linear-gradient-12);}.cls-34{fill:#e0644e;}.cls-35{fill:url(#linear-gradient-13);}.cls-36{fill:url(#linear-gradient-14);}.cls-37{fill:#1a7c7c;}.cls-38{fill:url(#linear-gradient-15);}.cls-39{fill:url(#linear-gradient-16);}.cls-40{fill:url(#linear-gradient-17);}.cls-41{fill:#c6c6c6;}.cls-42{fill:#fff;}.cls-43{fill:url(#linear-gradient-18);}.cls-44{fill:#f000ff;}.cls-45{fill:#5ae2cb;}.cls-46{fill:#606060;}.cls-47{fill:url(#linear-gradient-19);}.cls-48{fill:url(#linear-gradient-20);}</style><linearGradient id="linear-gradient" x1="11913.99" y1="327.07" x2="11915.42" y2="413.66" gradientTransform="translate(-11786.92)" gradientUnits="userSpaceOnUse"><stop offset="0.01" stop-color="gray"/><stop offset="1"/></linearGradient><linearGradient id="linear-gradient-2" x1="51.11" y1="335.45" x2="130.6" y2="335.45" gradientUnits="userSpaceOnUse"><stop offset="0" stop-color="#09a4b3"/><stop offset="1" stop-color="#29c7cc"/></linearGradient><linearGradient id="linear-gradient-3" x1="-1597.89" y1="-87.65" x2="-1594.91" y2="-78.11" gradientTransform="matrix(-0.99, -0.15, -0.15, 0.99, -1488, 98.12)" gradientUnits="userSpaceOnUse"><stop offset="0.01" stop-color="#ffaf99"/><stop offset="1" stop-color="#ed6f5f"/></linearGradient><linearGradient id="linear-gradient-4" x1="-1336.36" y1="-1190.88" x2="-1297.16" y2="-1181.06" gradientTransform="matrix(-0.98, -0.2, -0.2, 0.98, -1430.24, 1147.45)" xlink:href="#linear-gradient-3"/><linearGradient id="linear-gradient-5" x1="2785.46" y1="-26.43" x2="2785.46" y2="25.59" gradientTransform="matrix(-1, 0, 0, 1, 2938.28, 306.8)" xlink:href="#linear-gradient-3"/><linearGradient id="linear-gradient-6" x1="12000.4" y1="358.53" x2="12122.4" y2="358.53" xlink:href="#linear-gradient"/><linearGradient id="linear-gradient-7" x1="11877.77" y1="300.03" x2="11877.77" y2="396.97" xlink:href="#linear-gradient"/><linearGradient id="linear-gradient-8" x1="421.73" y1="135.61" x2="512.3" y2="135.61" gradientTransform="matrix(0.96, 0.29, -0.29, 0.96, 28.05, -152.09)" xlink:href="#linear-gradient-2"/><linearGradient id="linear-gradient-9" x1="463.83" y1="173.67" x2="463.83" y2="276.18" gradientUnits="userSpaceOnUse"><stop offset="0" stop-color="#ff7c48"/><stop offset="0.85" stop-color="#e85938"/></linearGradient><linearGradient id="linear-gradient-10" x1="474.67" y1="397.84" x2="474.67" y2="258.35" xlink:href="#linear-gradient-2"/><linearGradient id="linear-gradient-11" x1="479.48" y1="274.29" x2="479.48" y2="245.93" gradientUnits="userSpaceOnUse"><stop offset="0.01" stop-color="#ffaf99"/><stop offset="0.92" stop-color="#ed6f5f"/></linearGradient><linearGradient id="linear-gradient-12" x1="494.11" y1="222.5" x2="494.11" y2="244.46" gradientUnits="userSpaceOnUse"><stop offset="0" stop-color="#ffaf99"/><stop offset="0.96" stop-color="#ed6f5f"/></linearGradient><linearGradient id="linear-gradient-13" x1="4.26" y1="222.5" x2="4.26" y2="244.46" gradientTransform="matrix(-1, 0, 0, 1, 468.81, 0)" xlink:href="#linear-gradient-12"/><linearGradient id="linear-gradient-14" x1="479.24" y1="232.48" x2="479.24" y2="264.83" xlink:href="#linear-gradient-12"/><linearGradient id="linear-gradient-15" x1="418.12" y1="333.9" x2="541.1" y2="333.9" gradientTransform="matrix(1, 0, 0, 1, 0, 0)" xlink:href="#linear-gradient"/><linearGradient id="linear-gradient-16" x1="441.6" y1="354.38" x2="441.6" y2="446.42" gradientTransform="matrix(1, 0, 0, 1, 0, 0)" xlink:href="#linear-gradient-3"/><linearGradient id="linear-gradient-17" x1="12909.55" y1="354.38" x2="12909.55" y2="446.42" gradientTransform="matrix(-1, 0, 0, 1, 13427.17, 0)" xlink:href="#linear-gradient-3"/><linearGradient id="linear-gradient-18" x1="525.78" y1="334.13" x2="525.78" y2="281.34" gradientTransform="matrix(1, 0, 0, 1, 0, 0)" xlink:href="#linear-gradient"/><linearGradient id="linear-gradient-19" x1="11951" y1="381.77" x2="11981.71" y2="381.77" gradientTransform="translate(-11786.92)" xlink:href="#linear-gradient-3"/><linearGradient id="linear-gradient-20" x1="11891.35" y1="346.17" x2="11891.35" y2="408.55" xlink:href="#linear-gradient"/></defs><g class="cls-1"><g id="Layer_1" data-name="Layer 1"><path class="cls-2" d="M350.4,341.46a8.5,8.5,0,0,1-2.73-.44c-2.72-.9-4.89-3.18-6.47-6.78-1.77-4-.41-6.63,1-8.11a9.71,9.71,0,0,1,3.25-2.13,4.94,4.94,0,0,1-.64-1.83,7.61,7.61,0,0,1,1.09,1.66,10.45,10.45,0,0,1,7-.27,2.53,2.53,0,0,1,1.8,2.31c0,1.2-.8,1.94-2.18,2a8.7,8.7,0,0,1-6.79-3.48,9.32,9.32,0,0,0-3.17,2c-1.35,1.39-2.6,3.82-.94,7.6,1.52,3.47,3.6,5.66,6.18,6.53a9.56,9.56,0,0,0,7-.67C354.93,340.38,353,341.46,350.4,341.46Zm-4.19-17.22a8.22,8.22,0,0,0,6.29,3.19c.79-.05,1.73-.36,1.74-1.57a2.08,2.08,0,0,0-1.51-1.86A9.9,9.9,0,0,0,346.21,324.24Z"/><path class="cls-3" d="M257.13,305.8a12.29,12.29,0,0,0-4.09.71l-5-18.82H225.67L219,313.47a12.24,12.24,0,1,0,8.08,14c0,8,7.57,13.64,14.33,13.64a12.23,12.23,0,0,0,12.19-11.32,12.11,12.11,0,0,0,3.53.52,12.24,12.24,0,0,0,0-24.48Z"/><path class="cls-4" d="M159.62,287s34.7,105.4-33.37,111.42c-78.34,6.91-43.69-93.45-43.69-93.45l11.25-27.1s-1.59,63.26,23.67,61.85,12.18-25.66,28.26-53.25Z"/><path class="cls-5" d="M118,378.16c-14.56.36-25.08,1.74-32.66,3.54,7.46,10.32,20.53,16.79,42.46,14.85,33.7-3,42.21-30.31,42.21-57.16C170,339.38,169.57,376.89,118,378.16Z"/><path class="cls-6" d="M97.17,393.9a51.72,51.72,0,0,0,5.16,2.58c6.47,2,14.35,2.74,23.92,1.9,13-1.15,22.2-5.9,28.66-12.85C130.49,369.52,106.7,384.25,97.17,393.9Z"/><path d="M187.52,299.15l-4.33-4.33a1.18,1.18,0,0,1,0-1.67,1.17,1.17,0,0,1,1.66,0l4.33,4.33,4.33-4.33a1.18,1.18,0,0,1,1.67,1.67l-4.33,4.33,4.33,4.33a1.17,1.17,0,0,1,0,1.66,1.2,1.2,0,0,1-.84.35,1.18,1.18,0,0,1-.83-.35l-4.33-4.33-4.33,4.33a1.17,1.17,0,1,1-1.66-1.66Z"/><polygon class="cls-7" points="199.2 170.38 193.09 179.96 205.3 179.96 199.2 170.38"/><path class="cls-2" d="M178.56,265.88c-.2-.06-6.52-3.13-5.87-12.16a8.94,8.94,0,0,1,2.68-5.66,6.86,6.86,0,0,1-1-4.21,15.11,15.11,0,0,1,6.34-11.46c.28.59-5.12,3.93-5.7,11.51a6.23,6.23,0,0,0,.87,3.7,11.57,11.57,0,0,1,2.75-1.8c3-1.42,6.1-1.55,7.85-.34a3.21,3.21,0,0,1,1.34,3.1c-.22,2.55-2.24,4-5.28,3.73a9.86,9.86,0,0,1-6.77-3.7,8.07,8.07,0,0,0-2.4,5.18c-.62,8.57,5.11,11.38,5.36,11.49C178.8,265.81,178.68,265.88,178.56,265.88Zm-2.35-17.73a9.2,9.2,0,0,0,6.35,3.5c1,.08,4.3.1,4.58-3.15a2.56,2.56,0,0,0-1.06-2.51c-1.54-1.07-4.5-.91-7.2.39A11.2,11.2,0,0,0,176.21,248.15Z"/><path class="cls-2" d="M311.33,213a14.74,14.74,0,0,0-1-2.3c-3,1-6.23,1.13-8.33.25a3,3,0,0,1-2.12-2.76c0-1.44,1-2.32,2.62-2.41a10.41,10.41,0,0,1,8.06,4.22,10.89,10.89,0,0,0,3.8-2.4c1.62-1.63,3.15-4.52,1.21-9-1.78-4.16-4.25-6.8-7.31-7.85a11.38,11.38,0,0,0-8.36.72c-.1-.59,4-2.81,8.53-1.26,3.23,1.11,5.8,3.86,7.65,8.16,2.07,4.81.42,7.91-1.32,9.67a11.55,11.55,0,0,1-3.89,2.5,6,6,0,0,1,.75,2.19C311.35,213,311.34,213,311.33,213Zm-8.55-6.67c-1.2.06-2.33.42-2.35,1.86a2.49,2.49,0,0,0,1.78,2.24c1.92.81,5,.73,7.78-.23A10,10,0,0,0,302.78,206.37Z"/><path class="cls-2" d="M108.43,256.14s16.72,22.1,1.22,29.15c-16.31,7.42-24.19-19.08-24.19-19.08Z"/><path class="cls-8" d="M93.82,274s4.51-.28,5.59.72c15.9,14.8,26.3,31.21,29.17,43.48,2.49,10.65-3,27.21-3.43,47.57.35,13.59,5.45,31.22,5.45,31.22H56.46S30.26,285.84,93.82,274Z"/><path class="cls-6" d="M112.55,291.06c-.61-1.44-2-2.23-3.15-1.75s-1.55,2-1,3.48,2,2.23,3.16,1.75S113.16,292.5,112.55,291.06Z"/><path class="cls-6" d="M121.48,308.53c-.61-1.44-2-2.23-3.16-1.75s-1.55,2-.94,3.48a2.29,2.29,0,1,0,4.1-1.73Z"/><path class="cls-3" d="M125.93,329c-.19-1.55-1.32-2.7-2.54-2.56s-2.06,1.52-1.88,3.08,1.32,2.7,2.54,2.56A2.6,2.6,0,0,0,125.93,329Z"/><path class="cls-9" d="M103.31,259.89s-2,13.3.21,16.6-15.28.81-15.28.81l1-20.07Z"/><path class="cls-10" d="M97.46,261.86,96,252.33s-2.74-5.06-1-7.51c0,0,.24-8.06.24-8.06,6.36-1.62,12.16.82,14.23-2.95a13.23,13.23,0,0,1,.74,1.66,50.48,50.48,0,0,1,2.16,10.65c.71.14,3.54-.06,4,.61s-3.64,3.67-3.64,3.67c0,.27,0,.54,0,.8.14,3.18.17,7-1.66,9.71C109,266.24,101.19,264.6,97.46,261.86Z"/><path class="cls-10" d="M85,242.09c1.23-2.28,3.63-2.31,5.63-1.82A14.06,14.06,0,0,0,90.54,251C86.64,250.24,82.89,246.06,85,242.09Z"/><path class="cls-11" d="M103.25,247.19A2.74,2.74,0,1,0,107,246,2.75,2.75,0,0,0,103.25,247.19Z"/><path class="cls-12" d="M109.4,244.53a.55.55,0,0,0,.5-.6l-.13-1.38a.56.56,0,0,0-1.11.11l.13,1.37A.55.55,0,0,0,109.4,244.53Z"/><path class="cls-13" d="M112.42,256.64c-1.73,0-2.68-3-2.72-3.15a.35.35,0,0,1,.22-.44.36.36,0,0,1,.44.23c.25.81,1.13,2.85,2.22,2.66a.34.34,0,0,1,.41.27.36.36,0,0,1-.28.41Z"/><path class="cls-14" d="M96,252.33a15.54,15.54,0,0,1-1.45-4.13c.84-2-1.54-10.82-.71-12.28,1.42-.47,5.21,1.43,6.5.78-.06,6.13,4.13,24,11.72,22.35a8.71,8.71,0,0,1-.92,1.86c-2.16,5.33-10,3.69-13.7.95Z"/><path class="cls-3" d="M85.39,267.71,102.94,270s1.75,6.4,2.51,8.47c1.28,3.48-.48,6.36-4.14,5.77-6.71-1.1-15.93-3.15-21.63-6.69Z"/><path class="cls-3" d="M112.55,291.06c-.61-1.44-2-2.23-3.15-1.75s-1.55,2-1,3.48,2,2.23,3.16,1.75S113.16,292.5,112.55,291.06Z"/><path class="cls-3" d="M121.48,308.53c-.61-1.44-2-2.23-3.16-1.75s-1.55,2-.94,3.48a2.29,2.29,0,1,0,4.1-1.73Z"/><path class="cls-3" d="M124.66,350.1c.23-1.54-.56-3-1.77-3.13s-2.39.92-2.63,2.47.56,2.95,1.77,3.14S124.42,351.65,124.66,350.1Z"/><path class="cls-15" d="M130.39,269.7l5,23.25c.75.71,4.33.9,8.61.56s7.75-1.09,8.32-1.75c.1-.17,1.32-23.91,1.32-23.91-.37-.17-22.87,1.62-22.87,1.62C130.44,269.47,130.37,269.58,130.39,269.7Z"/><path class="cls-3" d="M132.07,262c.17.12,18.32-1.32,18.32-1.32.34-.41-2.32-4.33-2.32-4.33-.19-.1-7,.45-7,.45l-6.83.54c-.17.13-2.18,4.42-2.18,4.42A.21.21,0,0,0,132.07,262Z"/><path d="M130.82,269.63l22.35-1.77a2.54,2.54,0,0,0,2.31-2.72s-1.55-5.13-2.93-5L130.2,261.9c-1.38.11-2.1,5.42-2.1,5.42A2.53,2.53,0,0,0,130.82,269.63Z"/><path class="cls-16" d="M153.41,271.46s0,.77-.2,4c-.05,1.08-2.64-.1-4.37-.28a5.56,5.56,0,0,0-2.58.11c-1.89.69-2.43,2.95-2,4.83a2.52,2.52,0,0,0,.22.6,2.64,2.64,0,0,0-1.24,1.59,4.45,4.45,0,0,0,.7,3.93,2.88,2.88,0,0,0,.88.76,3.09,3.09,0,0,0-1,2.09,3.7,3.7,0,0,0,2.93,4c.18,0,.45.13.81.25,1.68.54,12,2.11,13.86-3C165.55,279.22,158.37,272.63,153.41,271.46Z"/><path class="cls-13" d="M152.17,282a28,28,0,0,1-7.83-1.06c.23-.48,6.49,1.5,13.52-.09A12.1,12.1,0,0,1,152.17,282Z"/><path class="cls-13" d="M151.78,288.49a18.09,18.09,0,0,1-7.31-1.31c.28-.46,5.52,1.95,13.53,0A13.83,13.83,0,0,1,151.78,288.49Z"/><path class="cls-2" d="M219.86,389.49a27.92,27.92,0,0,1-2-3.53.38.38,0,0,1,.17-.5.37.37,0,0,1,.5.17l1.63,3.32a.37.37,0,0,1-.17.5A.32.32,0,0,1,219.86,389.49Zm-3.27-6.65a29,29,0,0,1-2-3.53.37.37,0,0,1,.67-.33l1.63,3.32a.38.38,0,0,1-.17.5A.35.35,0,0,1,216.59,382.84Zm-3.26-6.65a27.92,27.92,0,0,1-2-3.53.38.38,0,0,1,.17-.5.37.37,0,0,1,.5.17l1.63,3.32a.36.36,0,0,1-.17.5A.29.29,0,0,1,213.33,376.19Zm-3.27-6.65a29,29,0,0,1-2-3.53.37.37,0,0,1,.67-.33L210.4,369a.38.38,0,0,1-.17.5A.33.33,0,0,1,210.06,369.54Zm-3.26-6.65a29.23,29.23,0,0,1-2-3.53.37.37,0,0,1,.18-.5.36.36,0,0,1,.49.17l1.64,3.32a.38.38,0,0,1-.17.5A.35.35,0,0,1,206.8,362.89Zm-3.26-6.65a27.92,27.92,0,0,1-2-3.53.37.37,0,0,1,.67-.33l1.63,3.32a.37.37,0,0,1-.17.5A.32.32,0,0,1,203.54,356.24Zm-3.27-6.65a29,29,0,0,1-2-3.53.37.37,0,0,1,.17-.5.36.36,0,0,1,.49.17l1.64,3.32a.38.38,0,0,1-.17.5A.35.35,0,0,1,200.27,349.59Zm-2.65-6.53c-.41-.28-.4-.51-.24-.65l2.76-2.46a.37.37,0,0,1,.53,0,.37.37,0,0,1,0,.52L197.87,343A.38.38,0,0,1,197.62,343.06Zm5.53-4.93c-.41-.27-.4-.51-.24-.65l2.76-2.46a.38.38,0,0,1,.53,0,.39.39,0,0,1,0,.53L203.4,338A.38.38,0,0,1,203.15,338.13Zm5.53-4.92c-.41-.28-.4-.52-.24-.66l2.76-2.46a.38.38,0,0,1,.53,0,.39.39,0,0,1,0,.53l-2.77,2.46A.39.39,0,0,1,208.68,333.21Zm5.53-4.93c-.41-.28-.4-.52-.24-.65l2.76-2.47a.38.38,0,0,1,.5.56l-2.77,2.46A.35.35,0,0,1,214.21,328.28Zm5.53-4.93c-.41-.28-.4-.52-.24-.65l2.76-2.47a.39.39,0,0,1,.53,0,.38.38,0,0,1,0,.53L220,323.25A.35.35,0,0,1,219.74,323.35Zm5.54-4.93c-.42-.28-.41-.51-.25-.65l2.76-2.46a.37.37,0,1,1,.5.55l-2.77,2.47A.38.38,0,0,1,225.28,318.42Zm5.53-4.93c-.42-.28-.41-.51-.25-.65l2.76-2.46a.37.37,0,1,1,.5.55l-2.77,2.47A.38.38,0,0,1,230.81,313.49Zm5.53-4.93c-.42-.27-.41-.51-.25-.65l2.76-2.46a.38.38,0,0,1,.5.56l-2.77,2.46A.38.38,0,0,1,236.34,308.56Zm5.53-4.92c-.42-.28-.41-.52-.25-.66l2.76-2.46a.38.38,0,0,1,.5.56l-2.77,2.46A.37.37,0,0,1,241.87,303.64Zm5.53-4.93c-.42-.28-.41-.52-.25-.65l2.76-2.47a.39.39,0,0,1,.53,0,.38.38,0,0,1,0,.53l-2.77,2.46A.33.33,0,0,1,247.4,298.71Zm5.53-4.93c-.42-.28-.41-.51-.25-.65l2.76-2.47a.39.39,0,0,1,.53,0,.38.38,0,0,1,0,.53l-2.77,2.46A.34.34,0,0,1,252.93,293.78Zm5.53-4.93c-.42-.28-.41-.51-.25-.65l2.76-2.46a.37.37,0,1,1,.5.55l-2.77,2.47A.38.38,0,0,1,258.46,288.85Zm5.53-4.93c-.42-.28-.4-.51-.25-.65l2.76-2.46a.37.37,0,1,1,.5.55l-2.76,2.47A.4.4,0,0,1,264,283.92Zm5.53-4.93c-.42-.27-.4-.51-.25-.65l2.77-2.46a.37.37,0,0,1,.52,0,.38.38,0,0,1,0,.53l-2.76,2.46A.4.4,0,0,1,269.52,279Zm5.53-4.92c-.42-.28-.4-.52-.25-.66l2.77-2.46a.37.37,0,0,1,.49.56L275.3,274A.42.42,0,0,1,275.05,274.07Zm5.53-4.93c-.42-.28-.4-.52-.25-.65l2.76-2.47a.39.39,0,0,1,.53,0,.37.37,0,0,1,0,.53L280.83,269A.35.35,0,0,1,280.58,269.14Zm5.53-4.93c-.42-.28-.4-.51-.25-.65l2.77-2.47a.38.38,0,0,1,.52,0,.37.37,0,0,1,0,.53l-2.76,2.47A.38.38,0,0,1,286.11,264.21Zm5.53-4.93c-.42-.28-.4-.51-.25-.65l2.77-2.46a.37.37,0,1,1,.49.55l-2.76,2.47A.38.38,0,0,1,291.64,259.28Zm3.4-4.63c-.16,0-3.5-1.65-3.5-1.65a.37.37,0,0,1,.33-.67l3.33,1.61a.38.38,0,0,1,.18.5A.39.39,0,0,1,295,254.65Zm-6.67-3.22c-.16,0-3.5-1.65-3.5-1.65a.38.38,0,0,1,.33-.68l3.33,1.62a.36.36,0,0,1,.18.49A.38.38,0,0,1,288.37,251.43Zm-6.67-3.23c-.16,0-3.49-1.65-3.49-1.65a.37.37,0,0,1-.18-.5.38.38,0,0,1,.5-.17l3.33,1.61a.37.37,0,0,1,.18.5A.39.39,0,0,1,281.7,248.2ZM275,245c-.16,0-3.49-1.65-3.49-1.65a.38.38,0,0,1,.32-.68l3.33,1.62a.37.37,0,0,1,.18.5A.39.39,0,0,1,275,245Zm-6.66-3.23c-.17,0-3.5-1.65-3.5-1.65a.37.37,0,0,1-.18-.5.38.38,0,0,1,.5-.17l3.34,1.61a.37.37,0,0,1-.16.71Zm-6.67-3.23c-.17,0-3.5-1.64-3.5-1.64a.37.37,0,0,1-.17-.5.36.36,0,0,1,.49-.18l3.34,1.62a.37.37,0,0,1,.17.49A.36.36,0,0,1,261.7,238.52ZM255,235.3c-.16,0-3.5-1.65-3.5-1.65a.37.37,0,0,1,.32-.67l3.34,1.61a.37.37,0,0,1,.17.5A.36.36,0,0,1,255,235.3Zm-6.67-3.23c-.16,0-3.5-1.64-3.5-1.64a.38.38,0,0,1-.17-.5.37.37,0,0,1,.5-.18l3.33,1.62a.36.36,0,0,1,.17.49A.35.35,0,0,1,248.36,232.07Zm-6.67-3.22c-.16,0-3.5-1.65-3.5-1.65a.37.37,0,1,1,.33-.67l3.33,1.61a.37.37,0,0,1,.18.5A.39.39,0,0,1,241.69,228.85ZM235,225.63c-.16,0-3.5-1.66-3.5-1.66a.37.37,0,0,1-.17-.49.38.38,0,0,1,.5-.18l3.33,1.62a.36.36,0,0,1,.18.49A.38.38,0,0,1,235,225.63Zm-6.67-3.23c-.16,0-3.49-1.65-3.49-1.65a.37.37,0,0,1-.18-.5.38.38,0,0,1,.5-.17l3.33,1.61a.37.37,0,0,1,.18.5A.39.39,0,0,1,228.35,222.4Zm-6.67-3.23c-.16,0-3.49-1.64-3.49-1.64a.38.38,0,0,1,.32-.68l3.34,1.62a.37.37,0,0,1-.17.7ZM215,216c-.16,0-3.49-1.65-3.49-1.65a.37.37,0,1,1,.32-.67l3.34,1.61a.37.37,0,0,1-.17.71Zm-6.66-3.23c-.16,0-3.5-1.64-3.5-1.64a.37.37,0,0,1-.17-.5.36.36,0,0,1,.49-.18l3.34,1.62a.37.37,0,0,1-.16.7Zm-6.67-3.22c-.16,0-3.5-1.65-3.5-1.65a.37.37,0,1,1,.33-.67l3.33,1.61a.37.37,0,0,1,.17.5A.36.36,0,0,1,201.68,209.5ZM195,206.27c-.16,0-3.5-1.65-3.5-1.65a.37.37,0,0,1-.17-.49.37.37,0,0,1,.5-.18l3.33,1.62a.37.37,0,0,1-.16.7Zm-6.67-3.22c-.16,0-3.5-1.65-3.5-1.65a.37.37,0,0,1,.33-.67l3.33,1.61a.37.37,0,0,1,.18.5A.39.39,0,0,1,188.34,203.05Z"/><path class="cls-15" d="M303.78,254.84a7.58,7.58,0,1,1-7.58-7.58A7.58,7.58,0,0,1,303.78,254.84Z"/><path class="cls-17" d="M204.82,343a7.58,7.58,0,1,1-7.58-7.58A7.58,7.58,0,0,1,204.82,343Z"/><path d="M192.59,201.06a7.58,7.58,0,1,1-7.58-7.58A7.58,7.58,0,0,1,192.59,201.06Z"/><polygon class="cls-18" points="236.83 244.8 225.67 287.69 236.83 287.69 238.81 287.69 247.99 287.69 236.83 244.8"/><path class="cls-2" d="M223.27,206.88a36,36,0,0,0-1.86,10.79v59.52h30.84V217.67a35.72,35.72,0,0,0-1.86-10.79Z"/><path class="cls-19" d="M221.41,239.53v37.66H205C205,245.85,221.41,239.53,221.41,239.53Z"/><path class="cls-19" d="M252.25,239.53v37.66H268.7C268.7,245.85,252.25,239.53,252.25,239.53Z"/><path class="cls-15" d="M221.41,239.53v37.66H205C205,245.85,221.41,239.53,221.41,239.53Z"/><path class="cls-15" d="M252.25,239.53v37.66H268.7C268.7,245.85,252.25,239.53,252.25,239.53Z"/><circle class="cls-17" cx="236.83" cy="223.4" r="9.51"/><path class="cls-3" d="M242.71,223.4a5.88,5.88,0,1,1-5.88-5.88A5.87,5.87,0,0,1,242.71,223.4Z"/><rect class="cls-20" x="221.41" y="243.42" width="30.85" height="16.81"/><path class="cls-21" d="M236.83,182.64s-9.51,11.43-13.59,24.33h27.18C246.34,194.07,236.83,182.64,236.83,182.64Z"/><path class="cls-3" d="M221.87,397.78h-64a2.42,2.42,0,0,1,0-4.84h64a2.42,2.42,0,0,1,0,4.84Z"/><path class="cls-3" d="M325.92,314.9H239.31a11.49,11.49,0,0,0-10.59,7.36l-23.91,59.35c-3.2,7.94,6.19,16.68,14.42,16.68l119-77C336.12,319,329.32,314.9,325.92,314.9Z"/><path class="cls-22" d="M305.1,398.35H218.48a11.5,11.5,0,0,1-10.59-16l23.9-56.63a11.51,11.51,0,0,1,10.6-7H329a11.51,11.51,0,0,1,10.6,16l-23.91,56.63A11.49,11.49,0,0,1,305.1,398.35Z"/><path class="cls-23" d="M305.1,398.35H218.48a11.5,11.5,0,0,1-10.59-16l23.9-56.63a11.51,11.51,0,0,1,10.6-7H329a11.51,11.51,0,0,1,10.6,16l-23.91,56.63A11.49,11.49,0,0,1,305.1,398.35Z"/><path class="cls-3" d="M274.36,355.59c-2.46,4.27-2.18,9.05.62,10.67s7.09-.53,9.55-4.79,2.19-9-.62-10.67S276.83,351.33,274.36,355.59Z"/><path class="cls-24" d="M125.67,356.5c-4.81.77-22.76,4.57-31.5-13C87.8,330.71,86.51,300,86.51,300l-16.78,6.44-18,26.89C48.9,364.88,56.46,397,56.46,397H130.6s-5.1-17.63-5.45-31.22C125.22,362.57,125.4,359.48,125.67,356.5Z"/><polygon class="cls-25" points="137.65 198.94 150.26 195.85 161.22 203.78 148.61 206.87 137.65 198.94"/><polygon class="cls-6" points="148.61 206.87 161.22 203.78 157.83 218.35 145.22 221.44 148.61 206.87"/><polygon class="cls-26" points="137.65 198.94 148.61 206.87 145.22 221.44 134.27 213.51 137.65 198.94"/><polygon class="cls-7" points="537 135.42 542.76 147.62 527.66 156.38 521.9 144.17 537 135.42"/><polygon class="cls-6" points="521.9 144.17 527.66 156.38 520.75 147.02 514.99 134.81 521.9 144.17"/><polygon class="cls-15" points="537 135.42 521.9 144.17 514.99 134.81 530.11 126.06 537 135.42"/><path class="cls-3" d="M37,247.14a1.08,1.08,0,0,1-1.2-.93L35,240.09a1.09,1.09,0,0,1,.93-1.21,1.08,1.08,0,0,1,1.2.93l.79,6.13A1.08,1.08,0,0,1,37,247.14Z"/><path class="cls-17" d="M410.25,168.37a1,1,0,0,0-.81-1.12c-1.76-.61-3.51-1.24-5.23-1.94a2.09,2.09,0,0,1-1-1c-.72-1.67-1.38-3.37-2-5.07a1.6,1.6,0,0,1,0-1.14c.84-1.88,1.78-3.73,2.62-5.62a1.18,1.18,0,0,0-.14-1c-1.42-1.51-2.91-3-4.34-4.44a.86.86,0,0,0-1.18-.2c-1.79.89-3.59,1.76-5.41,2.57a1.83,1.83,0,0,1-1.24.06c-1.74-.63-3.47-1.3-5.17-2a1.88,1.88,0,0,1-1-.9c-.71-1.75-1.35-3.54-2-5.33-.19-.57-.43-.85-1.1-.83-2,0-4,0-6,0a1,1,0,0,0-1.12.82c-.6,1.76-1.28,3.49-1.88,5.25a1.55,1.55,0,0,1-1.12,1.07c-1.65.57-3.28,1.22-4.87,1.95a1.56,1.56,0,0,1-1.55,0c-1.75-.88-3.54-1.69-5.3-2.57a.93.93,0,0,0-1.27.22c-1.38,1.44-2.79,2.87-4.24,4.24a1,1,0,0,0-.19,1.37c.87,1.75,1.73,3.52,2.51,5.32a1.82,1.82,0,0,1,0,1.3q-1.09,2.56-2.34,5.05a2.13,2.13,0,0,1-1,1c-1.87.71-3.77,1.35-5.67,2a1,1,0,0,0-.83,1.1c.05,2,0,4,0,6a.9.9,0,0,0,.74,1c1.94.62,3.87,1.27,5.77,2a2.14,2.14,0,0,1,1,1c.77,1.61,1.4,3.29,2.2,4.88a1.72,1.72,0,0,1,0,1.75c-.83,1.66-1.58,3.36-2.41,5a1,1,0,0,0,.22,1.36c1.44,1.38,2.86,2.79,4.24,4.24a1,1,0,0,0,1.35.2c1.73-.86,3.49-1.65,5.22-2.51a1.52,1.52,0,0,1,1.54,0c1.66.82,3.4,1.5,5.07,2.29a1.86,1.86,0,0,1,.86.89c.71,1.9,1.37,3.83,2,5.76a.93.93,0,0,0,1.06.76q3-.06,6,0a1,1,0,0,0,1.1-.82c.61-1.9,1.26-3.79,2-5.66a2,2,0,0,1,.95-1c1.71-.8,3.45-1.55,5.2-2.25a1.71,1.71,0,0,1,1.22,0c2.05.91,4.06,1.89,6.16,2.88,1.65-1.67,3.29-3.3,4.88-5a1.22,1.22,0,0,0,.09-1.06c-.81-1.83-1.71-3.61-2.54-5.43a1.72,1.72,0,0,1-.08-1.16c.62-1.78,1.28-3.55,2-5.3a1.87,1.87,0,0,1,.93-1c1.75-.71,3.54-1.35,5.33-2a1,1,0,0,0,.73-1.07C410.22,172.37,410.21,170.37,410.25,168.37Zm-30.93,14.7A11.71,11.71,0,1,1,391,171.38,11.66,11.66,0,0,1,379.32,183.07Z"/><path class="cls-27" d="M477.19,130a1.43,1.43,0,0,0-.37-2c-1.89-1.87-3.77-3.77-5.56-5.74a3,3,0,0,1-.64-1.94c.1-2.61.31-5.21.55-7.81a2.37,2.37,0,0,1,.7-1.47c2.27-1.92,4.62-3.73,6.88-5.66a1.67,1.67,0,0,0,.47-1.44c-.9-2.83-1.93-5.63-2.86-8.45a1.22,1.22,0,0,0-1.41-1c-2.87,0-5.74,0-8.6,0a2.62,2.62,0,0,1-1.63-.69C462.84,91.89,461,90,459.26,88a2.73,2.73,0,0,1-.7-1.77c.17-2.71.45-5.41.76-8.11.1-.87,0-1.37-.9-1.76-2.62-1.18-5.22-2.43-7.78-3.72a1.45,1.45,0,0,0-2,.37c-1.87,1.91-3.82,3.72-5.68,5.63a2.2,2.2,0,0,1-2.12.69c-2.49-.28-5-.45-7.52-.49a2.23,2.23,0,0,1-2-1c-1.73-2.22-3.54-4.39-5.27-6.61a1.32,1.32,0,0,0-1.78-.5c-2.69,1-5.39,2-8.13,2.87-.92.29-1.09.78-1.08,1.64,0,2.82.05,5.64-.05,8.46a2.6,2.6,0,0,1-.85,1.67c-2,1.75-4,3.45-6.15,5.08a3.12,3.12,0,0,1-1.93.67c-2.86-.23-5.71-.59-8.55-1a1.41,1.41,0,0,0-1.77.91Q394,95,392.1,98.82a1.31,1.31,0,0,0,.32,1.82c2.12,2,4.22,4,6.23,6.15a3,3,0,0,1,.64,1.95c0,2.56-.22,5.12-.17,7.67a2.49,2.49,0,0,1-1,2.29c-2.11,1.64-4.14,3.38-6.24,5a1.4,1.4,0,0,0-.56,1.89c1,2.69,2,5.4,2.86,8.13a1.4,1.4,0,0,0,1.64,1.09c2.76,0,5.53,0,8.3,0a2.22,2.22,0,0,1,2,1c1.64,2.09,3.46,4,5.14,6.11a2.58,2.58,0,0,1,.56,1.68c-.26,2.91-.6,5.81-1,8.7a1.34,1.34,0,0,0,.9,1.64c2.61,1.19,5.21,2.42,7.77,3.72a1.39,1.39,0,0,0,1.93-.38q3-3.14,6.06-6.11a2.79,2.79,0,0,1,1.82-.64c2.71,0,5.42.13,8.13.29a2.54,2.54,0,0,1,1.6.73c2.08,2.44,4.08,5,6.19,7.54,3.17-1.14,6.31-2.23,9.4-3.43a1.74,1.74,0,0,0,.79-1.32c.07-2.87,0-5.74.07-8.61a2.45,2.45,0,0,1,.61-1.54c1.91-1.93,3.86-3.82,5.87-5.63a2.67,2.67,0,0,1,1.8-.66c2.71.17,5.41.44,8.11.74a1.34,1.34,0,0,0,1.62-.92C474.66,135.12,475.9,132.52,477.19,130ZM428,129.83A16.8,16.8,0,1,1,450.43,122,16.75,16.75,0,0,1,428,129.83Z"/><rect class="cls-28" x="380.24" y="173.67" width="167.2" height="102.51" rx="12.4"/><rect class="cls-3" x="423.65" y="152.4" width="80.38" height="145.06" rx="8.96" transform="translate(688.76 -238.91) rotate(90)"/><rect class="cls-29" x="508.7" y="192.76" width="21.19" height="2.39"/><rect class="cls-29" x="508.7" y="197.04" width="21.19" height="2.39"/><rect class="cls-29" x="508.7" y="206.82" width="21.19" height="2.39"/><rect class="cls-29" x="508.7" y="211.1" width="21.19" height="2.39"/><rect class="cls-6" x="508.7" y="219.16" width="21.19" height="2.39"/><rect class="cls-6" x="508.7" y="223.44" width="21.19" height="2.4"/><rect class="cls-6" x="508.7" y="233.22" width="21.19" height="2.39"/><rect class="cls-6" x="508.7" y="237.5" width="21.19" height="2.39"/><path class="cls-2" d="M403,231.11c-.26-.62,2.29-3.16,2.29-3.16.51.51-2,3.05-2,3.05A.4.4,0,0,1,403,231.11Zm5.09-5.09c-.26-.62,2.28-3.16,2.28-3.16.52.51-2,3.06-2,3.06A.35.35,0,0,1,408.11,226Zm5.08-5.09c-.25-.61,2.29-3.16,2.29-3.16.51.51-2,3.06-2,3.06A.35.35,0,0,1,413.19,220.93Zm5.09-5.08c-.25-.62,2.29-3.17,2.29-3.17.51.52-2,3.06-2,3.06A.38.38,0,0,1,418.28,215.85Zm5.09-5.09c-.26-.62,2.29-3.16,2.29-3.16.51.51-2,3.05-2,3.05A.36.36,0,0,1,423.37,210.76Zm5.09-5.09c-.26-.62,2.28-3.16,2.28-3.16.52.51-2,3.06-2,3.06A.35.35,0,0,1,428.46,205.67Zm5.08-5.09c-.25-.61,2.29-3.16,2.29-3.16.51.51-2,3.06-2,3.06A.35.35,0,0,1,433.54,200.58Zm5.09-5.08c-.26-.62,1.22-2.09,1.22-2.09.51.51-1,2-1,2A.38.38,0,0,1,438.63,195.5Z"/><path class="cls-2" d="M440.1,231.27H403c-.23-.23-.23-37.32-.23-37.32.23-.23,37.31-.23,37.31-.23.24.23.24,37.32.24,37.32A.23.23,0,0,1,440.1,231.27Zm-36.85-.47h36.62V194.19H403.25Z"/><path class="cls-30" d="M407.86,230.75A4.85,4.85,0,1,1,403,225.9,4.84,4.84,0,0,1,407.86,230.75Z"/><path class="cls-29" d="M445,193.87A4.85,4.85,0,1,1,440.1,189,4.85,4.85,0,0,1,445,193.87Z"/><path class="cls-30" d="M426.22,248.35a10.67,10.67,0,1,1-10.67-10.66A10.67,10.67,0,0,1,426.22,248.35Z"/><path class="cls-29" d="M440.1,248.35a10.66,10.66,0,1,1-10.66-10.66A10.66,10.66,0,0,1,440.1,248.35Z"/><path class="cls-6" d="M426.22,248.35a10.64,10.64,0,0,0-3.72-8.08,10.64,10.64,0,0,0,0,16.16A10.64,10.64,0,0,0,426.22,248.35Z"/><rect class="cls-15" x="380.24" y="173.67" width="167.2" height="102.51" rx="12.4"/><rect class="cls-3" x="423.65" y="152.4" width="80.38" height="145.06" rx="8.96" transform="translate(688.76 -238.91) rotate(90)"/><rect class="cls-7" x="508.7" y="192.76" width="21.19" height="2.39"/><rect class="cls-7" x="508.7" y="197.04" width="21.19" height="2.39"/><rect class="cls-7" x="508.7" y="206.82" width="21.19" height="2.39"/><rect class="cls-7" x="508.7" y="211.1" width="21.19" height="2.39"/><rect class="cls-15" x="508.7" y="219.16" width="21.19" height="2.39"/><rect class="cls-15" x="508.7" y="223.44" width="21.19" height="2.4"/><rect class="cls-15" x="508.7" y="233.22" width="21.19" height="2.39"/><rect class="cls-15" x="508.7" y="237.5" width="21.19" height="2.39"/><path class="cls-2" d="M403,231.11c-.26-.62,2.29-3.16,2.29-3.16.51.51-2,3.05-2,3.05A.4.4,0,0,1,403,231.11Zm5.09-5.09c-.26-.62,2.28-3.16,2.28-3.16.52.51-2,3.06-2,3.06A.35.35,0,0,1,408.11,226Zm5.08-5.09c-.25-.61,2.29-3.16,2.29-3.16.51.51-2,3.06-2,3.06A.35.35,0,0,1,413.19,220.93Zm5.09-5.08c-.25-.62,2.29-3.17,2.29-3.17.51.52-2,3.06-2,3.06A.38.38,0,0,1,418.28,215.85Zm5.09-5.09c-.26-.62,2.29-3.16,2.29-3.16.51.51-2,3.05-2,3.05A.36.36,0,0,1,423.37,210.76Zm5.09-5.09c-.26-.62,2.28-3.16,2.28-3.16.52.51-2,3.06-2,3.06A.35.35,0,0,1,428.46,205.67Zm5.08-5.09c-.25-.61,2.29-3.16,2.29-3.16.51.51-2,3.06-2,3.06A.35.35,0,0,1,433.54,200.58Zm5.09-5.08c-.26-.62,1.22-2.09,1.22-2.09.51.51-1,2-1,2A.38.38,0,0,1,438.63,195.5Z"/><path class="cls-2" d="M440.1,231.27H403c-.23-.23-.23-37.32-.23-37.32.23-.23,37.31-.23,37.31-.23.24.23.24,37.32.24,37.32A.23.23,0,0,1,440.1,231.27Zm-36.85-.47h36.62V194.19H403.25Z"/><path class="cls-17" d="M407.86,230.75A4.85,4.85,0,1,1,403,225.9,4.84,4.84,0,0,1,407.86,230.75Z"/><path class="cls-7" d="M445,193.87A4.85,4.85,0,1,1,440.1,189,4.85,4.85,0,0,1,445,193.87Z"/><path class="cls-17" d="M424.07,248.35a9.59,9.59,0,1,1-9.59-9.59A9.59,9.59,0,0,1,424.07,248.35Z"/><path class="cls-7" d="M448.16,248.35a9.59,9.59,0,1,1-9.59-9.59A9.59,9.59,0,0,1,448.16,248.35Z"/><path class="cls-2" d="M486.71,211.77c-12.42-6.25-18.41,5.2-18.41,5.2-3.75-1.73-7.75,10.55-.44,22.82l22.86.16C498.87,224.93,495.83,216.36,486.71,211.77Z"/><path class="Graphic-Style-5" d="M522.59,272.9c-7.84-15.19-41.4-13.85-45.93-14.55l-2.14.1c-10.75.79-39.25,3-46.44,23.71,0,0-12.21,39.88-11.29,63.11.35,9,12.19,20.33,13.27,18.74-.57,4.23-4.28,33.83-4.28,33.83H532.61s-1.88-14-3.06-33.37C534.83,366.69,519.94,261.57,522.59,272.9Z"/><path class="cls-2" d="M479.85,249.37c-6.32-.22-8.37,1.57-8.37,1.57l8,9.2,8-9.2S486.18,249.6,479.85,249.37Z"/><polygon points="372.04 285.08 366.11 294.39 377.96 294.39 372.04 285.08"/><path class="cls-2" d="M592.11,332.62c0-.63,6.12-1.56,9.52-8.1a6.06,6.06,0,0,0,.64-3.65,11.35,11.35,0,0,1-3.14.57c-3.19.14-6-.94-7.14-2.69a3.1,3.1,0,0,1,0-3.28c1.17-2.19,3.52-2.7,6.14-1.32a9.59,9.59,0,0,1,4.64,5.88,7.85,7.85,0,0,0,4.12-3.7c3.82-7.42-.23-12.12-.41-12.32.52-.36,5,4.79,1,12.6a8.71,8.71,0,0,1-4.56,4,6.67,6.67,0,0,1-.68,4.16,14.68,14.68,0,0,1-10,7.81Zm3.2-18.6a3,3,0,0,0-2.79,1.74,2.5,2.5,0,0,0,0,2.66c1,1.53,3.67,2.52,6.58,2.39a11.41,11.41,0,0,0,3.06-.56,9,9,0,0,0-4.34-5.55A5.85,5.85,0,0,0,595.31,314Z"/><path class="cls-2" d="M371.63,60.88c0,.64-6.05,1.81-9.19,8.49A6,6,0,0,0,362,73a11.55,11.55,0,0,1,3.12-.69c3.18-.27,6.07.7,7.24,2.4a3.11,3.11,0,0,1,.15,3.28c-1.08,2.24-3.41,2.84-6.08,1.57a9.64,9.64,0,0,1-4.87-5.7,7.88,7.88,0,0,0-4,3.87c-3.51,7.57.72,12.1.9,12.29-.5.39-5.17-4.58-1.47-12.55a8.69,8.69,0,0,1,4.39-4.22,6.71,6.71,0,0,1,.51-4.18,14.65,14.65,0,0,1,9.72-8.21ZM369.18,79.6a3,3,0,0,0,2.71-1.86,2.47,2.47,0,0,0-.1-2.65c-1-1.49-3.77-2.37-6.67-2.13a11.37,11.37,0,0,0-3,.69A8.92,8.92,0,0,0,366.65,79,5.6,5.6,0,0,0,369.18,79.6Z"/><path class="cls-17" d="M572.85,203.4l4.21-4.2a1.16,1.16,0,0,0,0-1.62,1.14,1.14,0,0,0-1.62,0l-4.21,4.2-4.2-4.2a1.15,1.15,0,0,0-1.62,1.62l4.2,4.2-4.2,4.21a1.14,1.14,0,1,0,1.62,1.61l4.2-4.2,4.21,4.2a1.1,1.1,0,0,0,.81.34,1.15,1.15,0,0,0,.81-1.95Z"/><path class="cls-31" d="M345.9,232.44l4.21-4.2a1.16,1.16,0,0,0,0-1.62,1.14,1.14,0,0,0-1.62,0l-4.21,4.2-4.2-4.2a1.15,1.15,0,0,0-1.62,1.62l4.21,4.2-4.21,4.21a1.14,1.14,0,1,0,1.62,1.61l4.2-4.2,4.21,4.2a1.1,1.1,0,0,0,.81.34,1.15,1.15,0,0,0,.81-1.95Z"/><path class="cls-32" d="M486.71,261.87l-1.15-25.31L479.48,241l-6.08-4.43-1.15,25.31a11.47,11.47,0,0,0,7.23,2.26C484.75,264.13,486.71,261.87,486.71,261.87Z"/><path class="cls-33" d="M498,229.07c-2.64-4-8.69.29-8.69.29l1.33,8.87C495.18,239.36,501.06,233.65,498,229.07Z"/><path class="cls-34" d="M497.26,230.31c.95,1.5-.05,3.83-2.23,5.21s-4.71,1.27-5.66-.23.05-3.83,2.23-5.21S496.31,228.81,497.26,230.31Z"/><path class="cls-35" d="M460.62,229.07c2.64-4,8.69.29,8.69.29L468,238.23C463.48,239.36,457.6,233.65,460.62,229.07Z"/><path class="cls-34" d="M461.4,230.31c-.95,1.5.05,3.83,2.23,5.21s4.71,1.27,5.66-.23,0-3.83-2.22-5.21S462.35,228.81,461.4,230.31Z"/><ellipse class="cls-6" cx="487.78" cy="286.69" rx="2.38" ry="3.04"/><ellipse class="cls-6" cx="487.78" cy="324.77" rx="2.38" ry="3.04"/><path class="cls-6" d="M490.17,357.1c0,1.68-1.07,3-2.39,3s-2.38-1.36-2.38-3,1.07-3,2.38-3S490.17,355.42,490.17,357.1Z"/><ellipse class="cls-6" cx="487.78" cy="383.09" rx="2.38" ry="3.04"/><path class="cls-10" d="M491.9,227.86v-1.44c-7,1-17.72-2.78-23-5.1a62.56,62.56,0,0,0-1.83,12.87,31.81,31.81,0,0,0,.33,3.29c.65,3.77,1.66,8.43,5.94,10.28,2.12.92,9.82.92,11.94,0,4.28-1.85,5.29-6.51,5.94-10.28.13-.79.25-1.82.35-3Z"/><path class="cls-3" d="M487.51,250.94l-8,9.54-8-9.54-5.55,6.72,2.82,9.45a4.1,4.1,0,0,0,6.36,2.13l4.37-3.22S483,268.6,483,268.6a4.79,4.79,0,0,0,7.45-2.54l2.4-8.35Z"/><path class="cls-36" d="M467.06,234.14a32.62,32.62,0,0,0,.34,3.34c.66,3.77,1.7,8.43,6.07,10.28a19.62,19.62,0,0,0,6,.69,18.87,18.87,0,0,0,5.84-.69c4.28-1.85,5.29-6.51,5.94-10.28.08-.45.14-1,.21-1.57-1.36,4.55-4.49,9.33-11.67,9.33-9.83,0-12-8.36-12.59-13C467.1,233.07,467.06,233.74,467.06,234.14Z"/><path class="cls-11" d="M490.86,235.26a3.13,3.13,0,1,1-3.12-3.14A3.13,3.13,0,0,1,490.86,235.26Z"/><path class="cls-12" d="M484.74,232.15a.53.53,0,0,0,.53-.55l0-1.34a.55.55,0,0,0-.55-.53.54.54,0,0,0-.53.55l0,1.35A.53.53,0,0,0,484.74,232.15Z"/><path class="cls-11" d="M468.3,235.26a3.13,3.13,0,1,0,3.12-3.14A3.13,3.13,0,0,0,468.3,235.26Z"/><path class="cls-12" d="M474.13,232.15a.54.54,0,0,1-.54-.54v-1.34a.55.55,0,0,1,.54-.54.54.54,0,0,1,.54.54v1.34A.54.54,0,0,1,474.13,232.15Z"/><path class="cls-37" d="M479.5,396.74c-.33-.34-.33-128.22-.33-128.22.67,0,.67,127.88.67,127.88A.34.34,0,0,1,479.5,396.74Z"/><path class="cls-30" d="M479.5,266.36c-.33-.34-.33-6.22-.33-6.22.67,0,.67,5.88.67,5.88A.34.34,0,0,1,479.5,266.36Z"/><path class="cls-37" d="M443,379.43c-4.54-28.42-41.46-34.23-41.84-34.29.48-.61,37.89,5.28,42.17,33.9C443,379.43,443,379.43,443,379.43Z"/><path class="cls-37" d="M516.19,379.43c3.95-29,41.36-34.9,41.74-34.95-.28.72-37.2,6.53-41.41,34.66A.34.34,0,0,1,516.19,379.43Z"/><rect class="cls-22" x="418.12" y="293.24" width="122.98" height="81.32" rx="15.7"/><rect class="cls-38" x="418.12" y="293.24" width="122.98" height="81.32" rx="15.7"/><rect class="cls-3" x="461.83" y="333.85" width="35.56" height="25.62" rx="7.33"/><path class="cls-39" d="M457.86,391c-.77-3.24-3.63-12.48-7-12.59a14.22,14.22,0,0,0-5.13.87c-2.09-1.45-6.41-.88-8-.16a10.42,10.42,0,0,0-8.8,1.9c-3.07,2.21-4.55,4.92-3.12,8.42a6.49,6.49,0,0,0,8,3.74c2.07-.69,4.2-1,5.35,0a5.23,5.23,0,0,0,5.68.61c2.29,1.12,5.76.76,6.93-.43C454.6,394.22,458.48,393.56,457.86,391Z"/><path class="cls-13" d="M443,394.12c-3.1-12-5.41-14.76-5.43-14.79a.36.36,0,0,1,0-.51c.61.13,2.95,2.83,5.75,14.85a.36.36,0,0,1-.27.44Z"/><path class="cls-13" d="M451.8,393.7c-2.44-10.44-6.29-14.15-6.33-14.18a.37.37,0,0,1,0-.52.36.36,0,0,1,.51,0c.17.16,4,3.88,6.19,14.28a.36.36,0,0,1-.29.43Z"/><path class="cls-40" d="M501.36,391c.77-3.24,3.63-12.48,7-12.59a14.18,14.18,0,0,1,5.13.87c2.1-1.45,6.42-.88,8-.16a10.43,10.43,0,0,1,8.8,1.9c3.06,2.21,4.54,4.92,3.11,8.42a6.49,6.49,0,0,1-8,3.74c-2.07-.69-4.2-1-5.34,0a5.24,5.24,0,0,1-5.69.61c-2.29,1.12-5.76.76-6.93-.43C504.62,394.22,500.74,393.56,501.36,391Z"/><path class="cls-13" d="M516.19,394.12c-.28-.06-.4-.25-.36-.45,2.8-12,5.14-14.72,5.24-14.82a.37.37,0,0,1,.52,0c0,.56-2.32,3.29-5.05,15A.36.36,0,0,1,516.19,394.12Z"/><path class="cls-13" d="M507.43,393.7c-.28-.05-.4-.24-.36-.44,2.13-10.4,6-14.12,6.18-14.28a.36.36,0,0,1,.51,0,.37.37,0,0,1,0,.52s-3.89,3.74-6,13.89A.36.36,0,0,1,507.43,393.7Z"/><path class="cls-41" d="M534.4,397.92H426.53a3.73,3.73,0,0,1,0-7.45H534.4a3.73,3.73,0,1,1,0,7.45Z"/><path class="cls-22" d="M485.58,397.92H473.64V349.23a6,6,0,1,1,11.94,0Z"/><path class="cls-22" d="M485.58,397.92H473.64V349.23a6,6,0,1,1,11.94,0Z"/><path class="cls-42" d="M472.62,236.59a5.53,5.53,0,1,1,5.53-5.53A5.53,5.53,0,0,1,472.62,236.59Zm0-10.5a5,5,0,1,0,5,5A5,5,0,0,0,472.62,226.09Z"/><path class="cls-42" d="M486.17,236.59a5.53,5.53,0,1,1,5.53-5.53A5.53,5.53,0,0,1,486.17,236.59Zm0-10.5a5,5,0,1,0,5,5A5,5,0,0,0,486.17,226.09Z"/><path class="cls-43" d="M525.4,293.24H510.46v14.42A12.33,12.33,0,0,0,522.79,320H541.1V308.94A15.74,15.74,0,0,0,525.4,293.24Z"/><path class="cls-2" d="M468.3,217s3.48-9.3,11.59-10Z"/><path class="cls-2" d="M479.89,209.91s10.25-3.11,15.17,5.81Z"/><path class="cls-2" d="M468.3,217s-1-5.88-8-5l8,5.24Z"/><rect class="cls-44" x="514.86" y="245.33" width="66.59" height="66.59" rx="12.33"/><path class="cls-3" d="M541.17,286.89a1.22,1.22,0,0,1-.87-2.08l13.58-13.58a1.22,1.22,0,0,1,1.73,0,1.24,1.24,0,0,1,0,1.73L542,286.53A1.21,1.21,0,0,1,541.17,286.89Z"/><path class="cls-3" d="M559.88,291.38a1.23,1.23,0,0,1-.87-2.09l10.53-10.53-9.9-9.9a1.22,1.22,0,0,1,1.73-1.73l10.77,10.77a1.24,1.24,0,0,1,0,1.73L560.74,291A1.21,1.21,0,0,1,559.88,291.38Z"/><path class="cls-3" d="M535.94,291.38a1.2,1.2,0,0,1-.86-.36l-11.4-11.39a1.22,1.22,0,0,1,0-1.73l10.77-10.77a1.22,1.22,0,0,1,1.72,1.73l-9.9,9.9,10.53,10.53a1.23,1.23,0,0,1-.86,2.09Z"/><path class="cls-17" d="M620.12,397.14H557a7,7,0,0,1,0-14.05h63.14a7,7,0,1,1,0,14.05Z"/><path class="cls-3" d="M618.79,393.66H558.31a3.55,3.55,0,1,1,0-7.1h60.48a3.55,3.55,0,1,1,0,7.1Z"/><path class="cls-15" d="M613.28,383.09H562.46a6.51,6.51,0,0,1,0-13h50.82a6.51,6.51,0,0,1,0,13Z"/><path class="cls-3" d="M612.52,379.87h-49.3a3.29,3.29,0,0,1,0-6.58h49.3a3.29,3.29,0,1,1,0,6.58Z"/><path class="cls-15" d="M412.09,396.62H361.27a6.51,6.51,0,0,1,0-13h50.82a6.51,6.51,0,1,1,0,13Z"/><path class="cls-3" d="M411.33,393.4H362a3.29,3.29,0,0,1,0-6.58h49.3a3.29,3.29,0,0,1,0,6.58Z"/><path class="cls-45" d="M396.11,384H359.46c-2.59,0-4.7-2.93-4.7-6.51s2.11-6.51,4.7-6.51h36.65c2.59,0,4.7,2.93,4.7,6.51S398.7,384,396.11,384Z"/><path class="cls-3" d="M395.57,380.81H360c-1.3,0-2.37-1.48-2.37-3.29s1.07-3.29,2.37-3.29h35.57c1.3,0,2.37,1.48,2.37,3.29S396.87,380.81,395.57,380.81Z"/><path class="cls-13" d="M478.71,238c-1.38-1-1.91-1.72-1.92-2.38a2,2,0,0,1,.95-1.51,2.77,2.77,0,0,0,.63-.67c.46-.85.34-3.7.25-4.72a.38.38,0,0,1,.35-.41.37.37,0,0,1,.41.34c0,.4.31,4-.34,5.16a3.22,3.22,0,0,1-.81.88c-.43.36-.69.61-.68.91s.25.81,1.39,1.72a.37.37,0,0,1,.07.53A.38.38,0,0,1,478.71,238Z"/><path class="cls-42" d="M477.8,232.16c-.16-.5.6-1.29,1.65-1.31a2.22,2.22,0,0,1,1.67.74c-.78,0-1.2-.2-1.66-.18a2.43,2.43,0,0,0-1.46.66A.25.25,0,0,1,477.8,232.16Z"/><path class="cls-13" d="M480.38,240.72l-2.63-.39a.38.38,0,0,1-.32-.43.38.38,0,0,1,.43-.32l2.57.38a.38.38,0,0,1-.05.76Z"/><path class="cls-17" d="M377.87,335.4h60a13.67,13.67,0,0,0,0-27.34h-60a13.67,13.67,0,0,0,0,27.34Z"/><circle class="cls-26" cx="379.54" cy="321.73" r="9.95"/><polygon class="cls-15" points="605.91 244.21 600.3 253.02 611.51 253.02 605.91 244.21"/><path class="cls-46" d="M638,398.46H11.55c-1.08,0-2-.45-2-1s.88-1,2-1H638c1.08,0,2,.45,2,1S639.12,398.46,638,398.46Z"/><path class="cls-47" d="M188,381.84c-10.19-11.09-17.45-12.67-17.45-12.67s-1.86.67-4.23,3.88c-4.28,5.81-1,9.93-1,9.93s4.58,5.13,6.05,6.89c.94,1.12,2.85,3.5,5.76,2.37,2.38-.92,2.38-2.13,2.38-2.13a4.68,4.68,0,0,0,4.75-2.26,26.61,26.61,0,0,1,2.47,2.26c3.33,3.41,5.3,5.25,7.33,3.69S193.76,388.13,188,381.84Z"/><path class="cls-13" d="M179.45,390.46c-.31-.19-2-2.95-4.29-5.22a.34.34,0,0,1,0-.49.36.36,0,0,1,.49,0,32.47,32.47,0,0,1,4.1,5.18.35.35,0,0,1-.3.53Z"/><path class="cls-13" d="M184.2,388.2a67.05,67.05,0,0,0-4.54-5.53.34.34,0,1,1,.5-.47,28.66,28.66,0,0,1,4.35,5.49.35.35,0,0,1-.15.47A.29.29,0,0,1,184.2,388.2Z"/><path class="cls-4" d="M170.53,369.17s-20.28-10.64-60.5-8.91c-31.13,1.34-20.48-52.7-24.57-71.05-1.32-5.94-19.91-11-29.93,4.29-10.23,15.65-24.32,75.67,8.59,101.86,37.46,29.82,78.21,1.7,101.14-12.38,0,0-1.24-2,.78-7.28C168,370.61,170.53,369.17,170.53,369.17Z"/><path class="cls-15" d="M57.5,388.94a46.86,46.86,0,0,0,6.62,6.42c17.33,13.8,35.37,15.18,52,11.3C100.5,379,70.49,383.66,57.5,388.94Z"/><path class="cls-2" d="M91.31,220.56c-6.54,1.22-20.78.67-22.41,11.29-.83,5.38.18,10.87,3.68,28.91C73.83,274,61.93,269.39,48,281.2c-15.86,13.4-.86,34.34-.86,34.34,4-15.72,13.07-27.32,25.12-27.32,37.26,0,29.57-37.1,25.36-49.4l14.5-3.52S108.94,217.29,91.31,220.56Z"/><path class="cls-48" d="M84.36,395.36C49.82,386,43.9,349.4,43.6,346.17c.34,18.49,5.6,37.32,20.52,49.19,37.46,29.82,78.21,1.7,101.14-12.38a3.75,3.75,0,0,1-.36-1.63C156.8,385.18,117,404.25,84.36,395.36Z"/><path class="cls-17" d="M48,308.74a.37.37,0,0,1-.37-.35c-.89-20.77,11.4-22.92,23.29-25,5.43-.95,11-1.93,15.55-4.61,11.95-7.1,8-22.27,4.47-35.66-.22-.87-.45-1.74-.67-2.59-3.52-13.7.21-17.6.37-17.76a.36.36,0,0,1,.51.51s-3.57,3.85-.18,17.07c.22.85.45,1.71.68,2.59C95,255.9,99.22,272,86.8,279.4c-4.62,2.75-10.3,3.75-15.8,4.71-12.11,2.11-23.54,4.11-22.68,24.25a.37.37,0,0,1-.35.38Z"/><path class="cls-17" d="M43.58,299.76a.36.36,0,0,1-.36-.39c1.24-15.59,9.93-18.64,18.34-21.59a40.56,40.56,0,0,0,9.69-4.37c10.18-7,7.74-22.36,5-33.31-2.63-10.55,3-14.77,3.2-14.95a.38.38,0,0,1,.51.08.37.37,0,0,1-.08.51c-.05,0-5.43,4.13-2.93,14.19,2.78,11.15,5.24,26.82-5.3,34.07a41.37,41.37,0,0,1-9.86,4.47c-8.57,3-16.67,5.84-17.86,20.95A.37.37,0,0,1,43.58,299.76Z"/><polygon class="cls-25" points="483.78 35.94 497.87 32.49 510.11 41.35 496.02 44.8 483.78 35.94"/><polygon class="cls-6" points="496.02 44.8 510.11 41.35 506.32 57.63 492.23 61.07 496.02 44.8"/><polygon class="cls-17" points="483.78 35.94 496.02 44.8 492.23 61.07 480 52.22 483.78 35.94"/><polygon class="cls-26" points="168.9 88.31 198.37 98.65 188.26 137.76 158.79 127.43 168.9 88.31"/><polygon class="cls-17" points="158.79 127.43 188.26 137.76 161.62 133.95 132.15 123.62 158.79 127.43"/><polygon class="cls-20" points="168.9 88.31 158.79 127.43 132.15 123.62 142.27 84.48 168.9 88.31"/><polygon class="cls-20" points="323.19 273.38 336.17 270.21 341.67 286.59 328.69 289.77 323.19 273.38"/><polygon class="cls-6" points="328.69 289.77 341.67 286.59 331.23 291.44 318.25 294.62 328.69 289.77"/><polygon points="323.19 273.38 328.69 289.77 318.25 294.62 312.75 278.23 323.19 273.38"/><polygon class="cls-20" points="272.81 163.69 281.66 161.52 286.5 172.03 277.65 174.19 272.81 163.69"/><polygon points="277.65 174.19 286.5 172.03 280.08 177.06 271.23 179.23 277.65 174.19"/><polygon class="cls-15" points="272.81 163.69 277.65 174.19 271.23 179.23 266.38 168.73 272.81 163.69"/><polygon class="cls-15" points="29.38 9.89 69.83 0 91.96 48.02 51.51 57.91 29.38 9.89"/><polygon points="51.51 57.91 91.96 48.02 62.59 71.06 22.13 80.96 51.51 57.91"/><polygon class="cls-20" points="29.38 9.89 51.51 57.91 22.13 80.96 0 32.94 29.38 9.89"/></g></g></svg>